<?xml version="1.0" standalone="no"?>
<!DOCTYPE svg PUBLIC "-//W3C//DTD SVG 20010904//EN"
 "http://www.w3.org/TR/2001/REC-SVG-20010904/DTD/svg10.dtd">
<svg version="1.0" xmlns="http://www.w3.org/2000/svg"
 width="128.000000pt" height="128.000000pt" viewBox="0 0 128.000000 128.000000"
 preserveAspectRatio="xMidYMid meet">

<g transform="translate(0.000000,128.000000) scale(0.100000,-0.100000)"
fill="#000000" stroke="none">
<path d="M355 1106 c-182 -45 -321 -200 -348 -388 -13 -93 1 -150 50 -208 66
-77 52 -74 483 -80 l385 -5 52 -29 c62 -34 99 -71 161 -162 47 -68 49 -69 93
-69 l44 0 3 359 c2 256 -1 363 -9 372 -12 15 -57 18 -76 6 -7 -5 -20 -32 -29
-61 -16 -54 -50 -99 -64 -85 -4 5 -20 47 -35 94 -15 47 -34 97 -42 112 -24 48
-75 98 -127 126 -50 27 -53 27 -271 29 -149 1 -236 -2 -270 -11z m510 -63 c46
-24 91 -67 110 -103 29 -58 88 -257 87 -296 -1 -70 -35 -120 -105 -149 -30
-12 -95 -15 -399 -15 -346 0 -364 1 -405 21 -78 38 -108 105 -93 210 25 174
162 319 332 348 29 5 139 9 243 8 172 -2 194 -4 230 -24z m365 -508 c0 -179
-4 -315 -9 -315 -5 0 -23 22 -40 48 -32 50 -145 165 -170 173 -10 4 0 18 32
48 49 45 77 110 77 175 0 23 9 38 35 59 22 17 41 46 52 77 10 28 19 50 20 50
2 0 3 -142 3 -315z"/>
<path d="M351 994 c-105 -37 -187 -118 -220 -217 -40 -118 -21 -201 55 -233
41 -17 676 -20 736 -4 50 14 88 61 88 108 0 46 -64 240 -93 284 -13 18 -40 43
-62 55 -38 22 -50 23 -250 22 -163 0 -220 -3 -254 -15z m476 -54 c44 -26 58
-51 98 -170 41 -121 42 -133 15 -160 -19 -19 -33 -20 -380 -20 -357 0 -359 0
-380 22 -53 57 8 222 108 290 73 50 108 57 317 57 171 1 193 -1 222 -19z"/>
<path d="M271 816 c-36 -37 -37 -66 -2 -66 25 0 82 65 75 85 -10 25 -38 17
-73 -19z"/>
<path d="M351 766 c-81 -82 -98 -116 -61 -124 23 -4 194 172 187 192 -12 32
-44 15 -126 -68z"/>
</g>
</svg>
